<mxfile host="Electron" agent="Mozilla/5.0 (X11; Linux x86_64) AppleWebKit/537.36 (KHTML, like Gecko) draw.io/27.0.9 Chrome/134.0.6998.205 Electron/35.5.1 Safari/537.36" version="27.0.9">
  <diagram id="C5RBs43oDa-KdzZeNtuy" name="Page-1">
    <mxGraphModel dx="671" dy="858" grid="1" gridSize="10" guides="1" tooltips="1" connect="1" arrows="1" fold="1" page="1" pageScale="1" pageWidth="827" pageHeight="1169" math="0" shadow="0">
      <root>
        <mxCell id="WIyWlLk6GJQsqaUBKTNV-0" />
        <mxCell id="WIyWlLk6GJQsqaUBKTNV-1" parent="WIyWlLk6GJQsqaUBKTNV-0" />
        <mxCell id="VXJ5ZZsS51Xb56cv5Zg6-0" value="Animation" style="swimlane;fontStyle=1;align=center;verticalAlign=top;childLayout=stackLayout;horizontal=1;startSize=26;horizontalStack=0;resizeParent=1;resizeParentMax=0;resizeLast=0;collapsible=1;marginBottom=0;whiteSpace=wrap;html=1;" vertex="1" parent="WIyWlLk6GJQsqaUBKTNV-1">
          <mxGeometry x="110" y="180" width="660" height="424" as="geometry" />
        </mxCell>
        <mxCell id="VXJ5ZZsS51Xb56cv5Zg6-1" value="- spriteSheet : Texture2D" style="text;strokeColor=none;fillColor=none;align=left;verticalAlign=top;spacingLeft=4;spacingRight=4;overflow=hidden;rotatable=0;points=[[0,0.5],[1,0.5]];portConstraint=eastwest;whiteSpace=wrap;html=1;" vertex="1" parent="VXJ5ZZsS51Xb56cv5Zg6-0">
          <mxGeometry y="26" width="660" height="26" as="geometry" />
        </mxCell>
        <mxCell id="VXJ5ZZsS51Xb56cv5Zg6-7" value="- frameWidth : int" style="text;strokeColor=none;fillColor=none;align=left;verticalAlign=top;spacingLeft=4;spacingRight=4;overflow=hidden;rotatable=0;points=[[0,0.5],[1,0.5]];portConstraint=eastwest;whiteSpace=wrap;html=1;" vertex="1" parent="VXJ5ZZsS51Xb56cv5Zg6-0">
          <mxGeometry y="52" width="660" height="26" as="geometry" />
        </mxCell>
        <mxCell id="VXJ5ZZsS51Xb56cv5Zg6-8" value="- frameHeight : int" style="text;strokeColor=none;fillColor=none;align=left;verticalAlign=top;spacingLeft=4;spacingRight=4;overflow=hidden;rotatable=0;points=[[0,0.5],[1,0.5]];portConstraint=eastwest;whiteSpace=wrap;html=1;" vertex="1" parent="VXJ5ZZsS51Xb56cv5Zg6-0">
          <mxGeometry y="78" width="660" height="26" as="geometry" />
        </mxCell>
        <mxCell id="VXJ5ZZsS51Xb56cv5Zg6-9" value="- framesPerRow : int" style="text;strokeColor=none;fillColor=none;align=left;verticalAlign=top;spacingLeft=4;spacingRight=4;overflow=hidden;rotatable=0;points=[[0,0.5],[1,0.5]];portConstraint=eastwest;whiteSpace=wrap;html=1;" vertex="1" parent="VXJ5ZZsS51Xb56cv5Zg6-0">
          <mxGeometry y="104" width="660" height="26" as="geometry" />
        </mxCell>
        <mxCell id="VXJ5ZZsS51Xb56cv5Zg6-6" value="- frameTime : float" style="text;strokeColor=none;fillColor=none;align=left;verticalAlign=top;spacingLeft=4;spacingRight=4;overflow=hidden;rotatable=0;points=[[0,0.5],[1,0.5]];portConstraint=eastwest;whiteSpace=wrap;html=1;" vertex="1" parent="VXJ5ZZsS51Xb56cv5Zg6-0">
          <mxGeometry y="130" width="660" height="26" as="geometry" />
        </mxCell>
        <mxCell id="VXJ5ZZsS51Xb56cv5Zg6-5" value="- isLooping : bool" style="text;strokeColor=none;fillColor=none;align=left;verticalAlign=top;spacingLeft=4;spacingRight=4;overflow=hidden;rotatable=0;points=[[0,0.5],[1,0.5]];portConstraint=eastwest;whiteSpace=wrap;html=1;" vertex="1" parent="VXJ5ZZsS51Xb56cv5Zg6-0">
          <mxGeometry y="156" width="660" height="26" as="geometry" />
        </mxCell>
        <mxCell id="VXJ5ZZsS51Xb56cv5Zg6-4" value="- direction : SpriteEffect" style="text;strokeColor=none;fillColor=none;align=left;verticalAlign=top;spacingLeft=4;spacingRight=4;overflow=hidden;rotatable=0;points=[[0,0.5],[1,0.5]];portConstraint=eastwest;whiteSpace=wrap;html=1;" vertex="1" parent="VXJ5ZZsS51Xb56cv5Zg6-0">
          <mxGeometry y="182" width="660" height="26" as="geometry" />
        </mxCell>
        <mxCell id="VXJ5ZZsS51Xb56cv5Zg6-11" value="- timer : float" style="text;strokeColor=none;fillColor=none;align=left;verticalAlign=top;spacingLeft=4;spacingRight=4;overflow=hidden;rotatable=0;points=[[0,0.5],[1,0.5]];portConstraint=eastwest;whiteSpace=wrap;html=1;" vertex="1" parent="VXJ5ZZsS51Xb56cv5Zg6-0">
          <mxGeometry y="208" width="660" height="26" as="geometry" />
        </mxCell>
        <mxCell id="VXJ5ZZsS51Xb56cv5Zg6-12" value="- currentFrame : int" style="text;strokeColor=none;fillColor=none;align=left;verticalAlign=top;spacingLeft=4;spacingRight=4;overflow=hidden;rotatable=0;points=[[0,0.5],[1,0.5]];portConstraint=eastwest;whiteSpace=wrap;html=1;" vertex="1" parent="VXJ5ZZsS51Xb56cv5Zg6-0">
          <mxGeometry y="234" width="660" height="26" as="geometry" />
        </mxCell>
        <mxCell id="VXJ5ZZsS51Xb56cv5Zg6-10" value="- totalFrames : int" style="text;strokeColor=none;fillColor=none;align=left;verticalAlign=top;spacingLeft=4;spacingRight=4;overflow=hidden;rotatable=0;points=[[0,0.5],[1,0.5]];portConstraint=eastwest;whiteSpace=wrap;html=1;" vertex="1" parent="VXJ5ZZsS51Xb56cv5Zg6-0">
          <mxGeometry y="260" width="660" height="26" as="geometry" />
        </mxCell>
        <mxCell id="VXJ5ZZsS51Xb56cv5Zg6-2" value="" style="line;strokeWidth=1;fillColor=none;align=left;verticalAlign=middle;spacingTop=-1;spacingLeft=3;spacingRight=3;rotatable=0;labelPosition=right;points=[];portConstraint=eastwest;strokeColor=inherit;" vertex="1" parent="VXJ5ZZsS51Xb56cv5Zg6-0">
          <mxGeometry y="286" width="660" height="8" as="geometry" />
        </mxCell>
        <mxCell id="VXJ5ZZsS51Xb56cv5Zg6-3" value="+ Animation (spriteSheet : Texture2D,&lt;span style=&quot;background-color: transparent; color: light-dark(rgb(0, 0, 0), rgb(255, 255, 255));&quot;&gt;&amp;nbsp;size : float, frameWidth : int, frameHeight int :, frameTime :&amp;nbsp;&lt;/span&gt;float&lt;span style=&quot;background-color: transparent; color: light-dark(rgb(0, 0, 0), rgb(255, 255, 255));&quot;&gt;, totalFrames :&amp;nbsp;&lt;/span&gt;int" style="text;strokeColor=none;fillColor=none;align=left;verticalAlign=top;spacingLeft=4;spacingRight=4;overflow=hidden;rotatable=0;points=[[0,0.5],[1,0.5]];portConstraint=eastwest;whiteSpace=wrap;html=1;" vertex="1" parent="VXJ5ZZsS51Xb56cv5Zg6-0">
          <mxGeometry y="294" width="660" height="26" as="geometry" />
        </mxCell>
        <mxCell id="VXJ5ZZsS51Xb56cv5Zg6-13" value="+ Update(gameTime : GameTime, spriteEffect : SpriteEffects) : void" style="text;strokeColor=none;fillColor=none;align=left;verticalAlign=top;spacingLeft=4;spacingRight=4;overflow=hidden;rotatable=0;points=[[0,0.5],[1,0.5]];portConstraint=eastwest;whiteSpace=wrap;html=1;" vertex="1" parent="VXJ5ZZsS51Xb56cv5Zg6-0">
          <mxGeometry y="320" width="660" height="26" as="geometry" />
        </mxCell>
        <mxCell id="VXJ5ZZsS51Xb56cv5Zg6-14" value="+ Draw(spriteBatch : SpriteBatch, position : Vector2, color : Color) : void" style="text;strokeColor=none;fillColor=none;align=left;verticalAlign=top;spacingLeft=4;spacingRight=4;overflow=hidden;rotatable=0;points=[[0,0.5],[1,0.5]];portConstraint=eastwest;whiteSpace=wrap;html=1;" vertex="1" parent="VXJ5ZZsS51Xb56cv5Zg6-0">
          <mxGeometry y="346" width="660" height="26" as="geometry" />
        </mxCell>
        <mxCell id="VXJ5ZZsS51Xb56cv5Zg6-15" value="- GetCurrentFrameRect() : Rectangle" style="text;strokeColor=none;fillColor=none;align=left;verticalAlign=top;spacingLeft=4;spacingRight=4;overflow=hidden;rotatable=0;points=[[0,0.5],[1,0.5]];portConstraint=eastwest;whiteSpace=wrap;html=1;" vertex="1" parent="VXJ5ZZsS51Xb56cv5Zg6-0">
          <mxGeometry y="372" width="660" height="26" as="geometry" />
        </mxCell>
        <mxCell id="VXJ5ZZsS51Xb56cv5Zg6-16" value="+ Reset() : void" style="text;strokeColor=none;fillColor=none;align=left;verticalAlign=top;spacingLeft=4;spacingRight=4;overflow=hidden;rotatable=0;points=[[0,0.5],[1,0.5]];portConstraint=eastwest;whiteSpace=wrap;html=1;" vertex="1" parent="VXJ5ZZsS51Xb56cv5Zg6-0">
          <mxGeometry y="398" width="660" height="26" as="geometry" />
        </mxCell>
      </root>
    </mxGraphModel>
  </diagram>
</mxfile>
